<?xml version="1.0" encoding="UTF-8" standalone="no"?>
<svg
   xmlns:dc="http://purl.org/dc/elements/1.1/"
   xmlns:cc="http://creativecommons.org/ns#"
   xmlns:rdf="http://www.w3.org/1999/02/22-rdf-syntax-ns#"
   xmlns:svg="http://www.w3.org/2000/svg"
   xmlns="http://www.w3.org/2000/svg"
   viewBox="0 0 794.97333 33.666668"
   height="33.666668"
   width="794.97333"
   xml:space="preserve"
   id="svg2"
   version="1.1"><metadata
     id="metadata8"><rdf:RDF><cc:Work
         rdf:about=""><dc:format>image/svg+xml</dc:format><dc:type
           rdf:resource="http://purl.org/dc/dcmitype/StillImage" /></cc:Work></rdf:RDF></metadata><defs
     id="defs6" /><g
     transform="matrix(1.3333333,0,0,-1.3333333,0,33.666667)"
     id="g10"><g
       transform="scale(0.1)"
       id="g12"><path
         id="path14"
         style="fill:#231f20;fill-opacity:1;fill-rule:nonzero;stroke:none"
         d="m 5754.93,6.35938 h 46.76 V 169.172 h 0.62 L 5928.55,1.59375 h 33.7 V 246.117 h -46.74 V 84.9023 h -0.63 L 5788.64,252.48 h -33.71 V 6.35938 Z M 5446.75,206.367 c 41.02,0 70.27,-39.105 70.27,-77.894 0,-36.2542 -30.52,-82.3597 -70.27,-82.3597 -39.75,0 -70.27,46.1055 -70.27,82.3597 0,38.789 29.25,77.894 70.27,77.894 z M 5446.75,0 c 69.95,0 118.61,57.8828 118.61,126.559 0,67.089 -48.66,125.921 -118.61,125.921 -69.95,0 -118.61,-58.832 -118.61,-125.921 C 5328.14,57.8828 5376.8,0 5446.75,0 Z m -349.34,205.422 h 48.33 v 40.695 h -143.41 v -40.695 h 48.34 V 6.35938 h 46.74 V 205.422 Z M 4696.26,133.867 V 95.7227 h 50.88 c -0.95,-28.9454 -25.44,-54.3829 -54.69,-54.3829 -45.15,0 -67.73,44.1993 -67.73,83.9492 0,39.742 22.26,85.848 67.41,85.848 24.8,0 45.15,-16.528 54.69,-38.157 l 41.34,22.258 c -18.44,36.575 -54.06,57.242 -94.76,57.242 -71.54,0 -117.01,-58.832 -117.01,-127.191 C 4576.39,59.1523 4620.59,0 4690.54,0 c 74.41,0 109.07,60.0977 109.07,127.828 v 6.039 H 4696.26 Z M 4159.81,6.35938 h 46.74 V 169.172 h 0.64 L 4333.43,1.59375 h 33.7 V 246.117 h -46.74 V 84.9023 h -0.64 L 4193.52,252.48 h -33.71 V 6.35938 Z M 3909.1,246.117 h -46.74 V 6.35938 h 46.74 V 246.117 Z m -344.51,0 h -46.74 V 6.35938 h 112.88 V 47.0703 h -66.14 V 246.117 Z m -324.5,0 h -46.75 V 6.35938 h 112.89 V 47.0703 h -66.14 V 246.117 Z M 2965.5,205.422 v 40.695 H 2841.49 V 6.35938 H 2965.5 V 47.0703 h -77.27 v 64.8637 h 74.41 v 40.699 h -74.41 v 52.789 h 77.27 z m -574.01,40.695 h -48.97 L 2418.84,1.59375 h 34.34 l 45.15,156.76525 h 0.64 L 2546.66,1.59375 H 2581 l 81.09,244.52325 h -48.97 L 2566.06,82.6758 h -0.64 l -49.6,166.6252 h -27.66 l -47.7,-166.6252 h -0.64 l -48.33,163.4412 z m -503.69,0 h -46.74 V 6.35938 h 112.88 V 47.0703 H 1887.8 V 246.117 Z m -284.58,-40.695 v 40.695 H 1479.21 V 6.35938 h 124.01 V 47.0703 h -77.27 v 64.8637 h 74.41 v 40.699 h -74.41 v 52.789 h 77.27 z m -364.72,40.695 h -46.74 V 6.35938 h 46.74 V 246.117 Z M 753.73,6.35938 h 46.75 V 169.172 h 0.629 L 927.348,1.59375 h 33.703 V 246.117 H 914.309 V 84.9023 h -0.641 L 787.438,252.48 H 753.73 V 6.35938 Z M 481.34,95.0781 h -56.918 l 26.391,87.1329 h 0.636 L 481.34,95.0781 Z M 494.383,56.9258 512.816,6.35938 h 49.922 L 471.797,252.48 h -36.25 L 342.07,6.35938 h 49.278 L 411.07,56.9258 h 83.313 z M 46.7383,205.422 h 7.6406 c 53.1011,0 79.8121,-27.031 79.8121,-79.18 0,-47.3826 -22.261,-79.1717 -79.8121,-79.1717 H 46.7383 V 205.422 Z M 0,6.35938 h 66.4609 c 68.3591,0 116.0591,52.14842 116.0591,119.55862 0,68.371 -46.422,120.199 -115.7427,120.199 L 0,246.117 V 6.35938 v 0" /></g></g></svg>